<svg xmlns="http://www.w3.org/2000/svg" version="1.1" xmlns:xlink="http://www.w3.org/1999/xlink" width="200" height="200"><svg width="200" height="200" viewBox="0 0 200 200" fill="none" xmlns="http://www.w3.org/2000/svg">
<g clip-path="url(#clip0_2022_63)">
<rect width="200" height="200" rx="31" fill="#ABCEF0"></rect>
<mask id="SvgjsMask1003" maskUnits="userSpaceOnUse" x="30" y="36" width="140" height="130" fill="black">
<rect fill="white" x="30" y="36" width="140" height="130"></rect>
<path d="M83.576 45.64C86.4773 43.9333 89.0373 43.72 91.256 45C93.4747 46.28 94.584 48.6267 94.584 52.04V69.96C94.584 72.1787 94.072 74.568 93.048 77.128C92.024 79.688 90.6587 82.0773 88.952 84.296C87.3307 86.4293 85.5387 88.0507 83.576 89.16C86.4773 87.4533 89.0373 87.24 91.256 88.52C93.4747 89.8 94.584 92.1467 94.584 95.56V121.16C94.584 123.464 94.072 125.896 93.048 128.456C92.024 130.931 90.6587 133.277 88.952 135.496C87.3307 137.629 85.5387 139.251 83.576 140.36L65.784 150.6C62.8827 152.307 60.3227 152.52 58.104 151.24C55.8853 149.96 54.776 147.613 54.776 144.2V157L43.64 163.4V68.68L83.576 45.64ZM83.576 89.16V58.44L54.776 75.08V105.8L83.576 89.16ZM83.576 101.96L54.776 118.6V144.2L83.576 127.56V101.96ZM54.776 144.2C54.776 147.613 55.8853 149.96 58.104 151.24L46.968 144.84C44.7493 143.56 43.64 141.213 43.64 137.8L54.776 144.2ZM91.256 88.52C89.0373 87.24 86.4773 87.4533 83.576 89.16L72.44 82.76C75.3413 81.0533 77.944 80.84 80.248 82.12L91.256 88.52ZM83.576 101.96V127.56L72.44 121.16V95.56L83.576 101.96ZM83.576 127.56L54.776 144.2L43.64 137.8L72.44 121.16L83.576 127.56ZM83.576 58.44V89.16L72.44 82.76V52.04L83.576 58.44ZM83.576 89.16L54.776 105.8L43.64 99.4L72.44 82.76L83.576 89.16ZM91.256 45C89.0373 43.72 86.4773 43.9333 83.576 45.64L43.64 68.68L32.504 62.28L72.44 39.24C75.3413 37.5333 77.944 37.32 80.248 38.6L91.256 45ZM43.64 68.68V163.4L32.504 157V62.28L43.64 68.68ZM136.858 75.08L116.89 86.6V73.8L167.834 44.36V57.16L147.866 68.68V157L136.858 163.4V75.08ZM136.858 75.08V163.4L125.722 157V68.68L136.858 75.08ZM167.834 44.36L116.89 73.8L105.754 67.4L156.826 37.96L167.834 44.36ZM116.89 73.8V86.6L105.754 80.2V67.4L116.89 73.8Z"></path>
</mask>
<path d="M83.576 45.64C86.4773 43.9333 89.0373 43.72 91.256 45C93.4747 46.28 94.584 48.6267 94.584 52.04V69.96C94.584 72.1787 94.072 74.568 93.048 77.128C92.024 79.688 90.6587 82.0773 88.952 84.296C87.3307 86.4293 85.5387 88.0507 83.576 89.16C86.4773 87.4533 89.0373 87.24 91.256 88.52C93.4747 89.8 94.584 92.1467 94.584 95.56V121.16C94.584 123.464 94.072 125.896 93.048 128.456C92.024 130.931 90.6587 133.277 88.952 135.496C87.3307 137.629 85.5387 139.251 83.576 140.36L65.784 150.6C62.8827 152.307 60.3227 152.52 58.104 151.24C55.8853 149.96 54.776 147.613 54.776 144.2V157L43.64 163.4V68.68L83.576 45.64ZM83.576 89.16V58.44L54.776 75.08V105.8L83.576 89.16ZM83.576 101.96L54.776 118.6V144.2L83.576 127.56V101.96ZM54.776 144.2C54.776 147.613 55.8853 149.96 58.104 151.24L46.968 144.84C44.7493 143.56 43.64 141.213 43.64 137.8L54.776 144.2ZM91.256 88.52C89.0373 87.24 86.4773 87.4533 83.576 89.16L72.44 82.76C75.3413 81.0533 77.944 80.84 80.248 82.12L91.256 88.52ZM83.576 101.96V127.56L72.44 121.16V95.56L83.576 101.96ZM83.576 127.56L54.776 144.2L43.64 137.8L72.44 121.16L83.576 127.56ZM83.576 58.44V89.16L72.44 82.76V52.04L83.576 58.44ZM83.576 89.16L54.776 105.8L43.64 99.4L72.44 82.76L83.576 89.16ZM91.256 45C89.0373 43.72 86.4773 43.9333 83.576 45.64L43.64 68.68L32.504 62.28L72.44 39.24C75.3413 37.5333 77.944 37.32 80.248 38.6L91.256 45ZM43.64 68.68V163.4L32.504 157V62.28L43.64 68.68ZM136.858 75.08L116.89 86.6V73.8L167.834 44.36V57.16L147.866 68.68V157L136.858 163.4V75.08ZM136.858 75.08V163.4L125.722 157V68.68L136.858 75.08ZM167.834 44.36L116.89 73.8L105.754 67.4L156.826 37.96L167.834 44.36ZM116.89 73.8V86.6L105.754 80.2V67.4L116.89 73.8Z" fill="#071758"></path>
<path d="M83.576 45.64L84.0757 46.5062L84.083 46.5019L83.576 45.64ZM91.256 45L91.7557 44.1338L91.7557 44.1338L91.256 45ZM93.048 77.128L93.9765 77.4994L93.9765 77.4994L93.048 77.128ZM88.952 84.296L88.1594 83.6863L88.1558 83.6909L88.952 84.296ZM83.576 89.16L83.069 88.2981L84.0681 90.0306L83.576 89.16ZM91.256 88.52L91.7557 87.6538L91.7557 87.6538L91.256 88.52ZM93.048 128.456L93.9721 128.838L93.9765 128.827L93.048 128.456ZM88.952 135.496L88.1594 134.886L88.1558 134.891L88.952 135.496ZM83.576 140.36L83.0839 139.489L83.0772 139.493L83.576 140.36ZM65.784 150.6L65.2852 149.733L65.277 149.738L65.784 150.6ZM58.104 151.24L57.6043 152.106L58.104 151.24ZM54.776 157L55.2743 157.867L55.776 157.579V157H54.776ZM43.64 163.4H42.64V165.128L44.1383 164.267L43.64 163.4ZM43.64 68.68L43.1403 67.8138L42.64 68.1024V68.68H43.64ZM83.576 89.16L84.0763 90.0259L84.576 89.7371V89.16H83.576ZM83.576 58.44H84.576V56.7073L83.0757 57.5741L83.576 58.44ZM54.776 75.08L54.2757 74.2141L53.776 74.5029V75.08H54.776ZM54.776 105.8H53.776V107.533L55.2763 106.666L54.776 105.8ZM83.576 101.96H84.576V100.227L83.0757 101.094L83.576 101.96ZM54.776 118.6L54.2757 117.734L53.776 118.023V118.6H54.776ZM54.776 144.2H53.776V145.933L55.2763 145.066L54.776 144.2ZM83.576 127.56L84.0763 128.426L84.576 128.137V127.56H83.576ZM54.776 144.2H55.776V143.621L55.2743 143.333L54.776 144.2ZM58.104 151.24L57.6057 152.107L58.6037 150.374L58.104 151.24ZM46.968 144.84L46.4683 145.706L46.4697 145.707L46.968 144.84ZM43.64 137.8L44.1383 136.933L42.64 136.072V137.8H43.64ZM91.256 88.52L90.7563 89.3862L91.7586 87.6555L91.256 88.52ZM83.576 89.16L83.0777 90.027L83.5818 90.3167L84.083 90.0219L83.576 89.16ZM72.44 82.76L71.933 81.8981L70.4506 82.77L71.9417 83.627L72.44 82.76ZM80.248 82.12L80.7506 81.2555L80.7422 81.2506L80.7336 81.2458L80.248 82.12ZM83.576 101.96H84.576V101.381L84.0743 101.093L83.576 101.96ZM83.576 127.56L83.0777 128.427L84.576 129.288V127.56H83.576ZM72.44 121.16H71.44V121.739L71.9417 122.027L72.44 121.16ZM72.44 95.56L72.9383 94.693L71.44 93.8319V95.56H72.44ZM83.576 127.56L84.0763 128.426L85.5789 127.558L84.0743 126.693L83.576 127.56ZM54.776 144.2L54.2777 145.067L54.7773 145.354L55.2763 145.066L54.776 144.2ZM43.64 137.8L43.1397 136.934L41.6371 137.802L43.1417 138.667L43.64 137.8ZM72.44 121.16L72.9383 120.293L72.4387 120.006L71.9397 120.294L72.44 121.16ZM83.576 58.44H84.576V57.8613L84.0743 57.573L83.576 58.44ZM83.576 89.16L83.0777 90.027L84.576 90.8881V89.16H83.576ZM72.44 82.76H71.44V83.3387L71.9417 83.627L72.44 82.76ZM72.44 52.04L72.9383 51.173L71.44 50.3119V52.04H72.44ZM83.576 89.16L84.0763 90.0259L85.5789 89.1577L84.0743 88.293L83.576 89.16ZM54.776 105.8L54.2777 106.667L54.7773 106.954L55.2763 106.666L54.776 105.8ZM43.64 99.4L43.1397 98.5341L41.6371 99.4023L43.1417 100.267L43.64 99.4ZM72.44 82.76L72.9383 81.893L72.4387 81.6058L71.9397 81.8941L72.44 82.76ZM91.256 45L90.7563 45.8662L91.7586 44.1355L91.256 45ZM83.576 45.64L84.0757 46.5062L84.083 46.5019L83.576 45.64ZM43.64 68.68L43.1417 69.547L43.641 69.8339L44.1397 69.5462L43.64 68.68ZM32.504 62.28L32.0043 61.4138L30.5 62.2817L32.0057 63.147L32.504 62.28ZM72.44 39.24L72.9397 40.1062L72.947 40.1019L72.44 39.24ZM80.248 38.6L80.7506 37.7355L80.7422 37.7306L80.7336 37.7258L80.248 38.6ZM43.64 68.68H44.64V68.1013L44.1383 67.813L43.64 68.68ZM43.64 163.4L43.1417 164.267L44.64 165.128V163.4H43.64ZM32.504 157H31.504V157.579L32.0057 157.867L32.504 157ZM32.504 62.28L33.0023 61.413L31.504 60.5519V62.28H32.504ZM83.576 45.64L84.083 46.5019C86.786 44.912 88.9477 44.8228 90.7563 45.8662L91.256 45L91.7557 44.1338C89.127 42.6172 86.1687 42.9547 83.069 44.7781L83.576 45.64ZM91.256 45L90.7563 45.8662C92.5637 46.9089 93.584 48.8487 93.584 52.04H94.584H95.584C95.584 48.4047 94.3856 45.6511 91.7557 44.1338L91.256 45ZM94.584 52.04H93.584V69.96H94.584H95.584V52.04H94.584ZM94.584 69.96H93.584C93.584 72.0247 93.1074 74.287 92.1195 76.7566L93.048 77.128L93.9765 77.4994C95.0366 74.849 95.584 72.3326 95.584 69.96H94.584ZM93.048 77.128L92.1195 76.7566C91.1302 79.23 89.8109 81.5393 88.1594 83.6863L88.952 84.296L89.7446 84.9057C91.5064 82.6153 92.9178 80.146 93.9765 77.4994L93.048 77.128ZM88.952 84.296L88.1558 83.6909C86.6015 85.7361 84.9081 87.2584 83.0839 88.2894L83.576 89.16L84.0681 90.0306C86.1692 88.8429 88.0598 87.1226 89.7482 84.9011L88.952 84.296ZM83.576 89.16L84.083 90.0219C86.786 88.432 88.9477 88.3428 90.7563 89.3862L91.256 88.52L91.7557 87.6538C89.127 86.1372 86.1687 86.4747 83.069 88.2981L83.576 89.16ZM91.256 88.52L90.7563 89.3862C92.5637 90.4289 93.584 92.3687 93.584 95.56H94.584H95.584C95.584 91.9247 94.3856 89.1711 91.7557 87.6538L91.256 88.52ZM94.584 95.56H93.584V121.16H94.584H95.584V95.56H94.584ZM94.584 121.16H93.584C93.584 123.314 93.1054 125.62 92.1195 128.085L93.048 128.456L93.9765 128.827C95.0386 126.172 95.584 123.614 95.584 121.16H94.584ZM93.048 128.456L92.124 128.074C91.1351 130.463 89.8149 132.734 88.1594 134.886L88.952 135.496L89.7446 136.106C91.5025 133.821 92.9129 131.398 93.972 128.838L93.048 128.456ZM88.952 135.496L88.1558 134.891C86.6015 136.936 84.9081 138.458 83.0839 139.489L83.576 140.36L84.0681 141.231C86.1692 140.043 88.0598 138.323 89.7482 136.101L88.952 135.496ZM83.576 140.36L83.0772 139.493L65.2852 149.733L65.784 150.6L66.2828 151.467L84.0748 141.227L83.576 140.36ZM65.784 150.6L65.277 149.738C62.574 151.328 60.4123 151.417 58.6037 150.374L58.104 151.24L57.6043 152.106C60.2331 153.623 63.1913 153.285 66.291 151.462L65.784 150.6ZM58.104 151.24L58.6037 150.374C56.7963 149.331 55.776 147.391 55.776 144.2H54.776H53.776C53.776 147.835 54.9744 150.589 57.6043 152.106L58.104 151.24ZM54.776 144.2H53.776V157H54.776H55.776V144.2H54.776ZM54.776 157L54.2777 156.133L43.1417 162.533L43.64 163.4L44.1383 164.267L55.2743 157.867L54.776 157ZM43.64 163.4H44.64V68.68H43.64H42.64V163.4H43.64ZM43.64 68.68L44.1397 69.5462L84.0757 46.5062L83.576 45.64L83.0763 44.7738L43.1403 67.8138L43.64 68.68ZM83.576 89.16H84.576V58.44H83.576H82.576V89.16H83.576ZM83.576 58.44L83.0757 57.5741L54.2757 74.2141L54.776 75.08L55.2763 75.9459L84.0763 59.3059L83.576 58.44ZM54.776 75.08H53.776V105.8H54.776H55.776V75.08H54.776ZM54.776 105.8L55.2763 106.666L84.0763 90.0259L83.576 89.16L83.0757 88.2941L54.2757 104.934L54.776 105.8ZM83.576 101.96L83.0757 101.094L54.2757 117.734L54.776 118.6L55.2763 119.466L84.0763 102.826L83.576 101.96ZM54.776 118.6H53.776V144.2H54.776H55.776V118.6H54.776ZM54.776 144.2L55.2763 145.066L84.0763 128.426L83.576 127.56L83.0757 126.694L54.2757 143.334L54.776 144.2ZM83.576 127.56H84.576V101.96H83.576H82.576V127.56H83.576ZM54.776 144.2H53.776C53.776 147.835 54.9744 150.589 57.6043 152.106L58.104 151.24L58.6037 150.374C56.7963 149.331 55.776 147.391 55.776 144.2H54.776ZM58.104 151.24L58.6023 150.373L47.4663 143.973L46.968 144.84L46.4697 145.707L57.6057 152.107L58.104 151.24ZM46.968 144.84L47.4677 143.974C45.6603 142.931 44.64 140.991 44.64 137.8H43.64H42.64C42.64 141.435 43.8384 144.189 46.4683 145.706L46.968 144.84ZM43.64 137.8L43.1417 138.667L54.2777 145.067L54.776 144.2L55.2743 143.333L44.1383 136.933L43.64 137.8ZM91.256 88.52L91.7557 87.6538C89.127 86.1372 86.1687 86.4747 83.069 88.2981L83.576 89.16L84.083 90.0219C86.786 88.432 88.9477 88.3428 90.7563 89.3862L91.256 88.52ZM83.576 89.16L84.0743 88.293L72.9383 81.893L72.44 82.76L71.9417 83.627L83.0777 90.027L83.576 89.16ZM72.44 82.76L72.947 83.6219C75.6405 82.0375 77.8556 81.9348 79.7624 82.9942L80.248 82.12L80.7336 81.2458C78.0324 79.7452 75.0422 80.0691 71.933 81.8981L72.44 82.76ZM80.248 82.12L79.7454 82.9845L90.7534 89.3845L91.256 88.52L91.7586 87.6555L80.7506 81.2555L80.248 82.12ZM83.576 101.96H82.576V127.56H83.576H84.576V101.96H83.576ZM83.576 127.56L84.0743 126.693L72.9383 120.293L72.44 121.16L71.9417 122.027L83.0777 128.427L83.576 127.56ZM72.44 121.16H73.44V95.56H72.44H71.44V121.16H72.44ZM72.44 95.56L71.9417 96.427L83.0777 102.827L83.576 101.96L84.0743 101.093L72.9383 94.693L72.44 95.56ZM83.576 127.56L83.0757 126.694L54.2757 143.334L54.776 144.2L55.2763 145.066L84.0763 128.426L83.576 127.56ZM54.776 144.2L55.2743 143.333L44.1383 136.933L43.64 137.8L43.1417 138.667L54.2777 145.067L54.776 144.2ZM43.64 137.8L44.1403 138.666L72.9403 122.026L72.44 121.16L71.9397 120.294L43.1397 136.934L43.64 137.8ZM72.44 121.16L71.9417 122.027L83.0777 128.427L83.576 127.56L84.0743 126.693L72.9383 120.293L72.44 121.16ZM83.576 58.44H82.576V89.16H83.576H84.576V58.44H83.576ZM83.576 89.16L84.0743 88.293L72.9383 81.893L72.44 82.76L71.9417 83.627L83.0777 90.027L83.576 89.16ZM72.44 82.76H73.44V52.04H72.44H71.44V82.76H72.44ZM72.44 52.04L71.9417 52.907L83.0777 59.307L83.576 58.44L84.0743 57.573L72.9383 51.173L72.44 52.04ZM83.576 89.16L83.0757 88.2941L54.2757 104.934L54.776 105.8L55.2763 106.666L84.0763 90.0259L83.576 89.16ZM54.776 105.8L55.2743 104.933L44.1383 98.533L43.64 99.4L43.1417 100.267L54.2777 106.667L54.776 105.8ZM43.64 99.4L44.1403 100.266L72.9403 83.6259L72.44 82.76L71.9397 81.8941L43.1397 98.5341L43.64 99.4ZM72.44 82.76L71.9417 83.627L83.0777 90.027L83.576 89.16L84.0743 88.293L72.9383 81.893L72.44 82.76ZM91.256 45L91.7557 44.1338C89.127 42.6172 86.1687 42.9547 83.069 44.7781L83.576 45.64L84.083 46.5019C86.786 44.912 88.9477 44.8228 90.7563 45.8662L91.256 45ZM83.576 45.64L83.0763 44.7738L43.1403 67.8138L43.64 68.68L44.1397 69.5462L84.0757 46.5062L83.576 45.64ZM43.64 68.68L44.1383 67.813L33.0023 61.413L32.504 62.28L32.0057 63.147L43.1417 69.547L43.64 68.68ZM32.504 62.28L33.0037 63.1462L72.9397 40.1062L72.44 39.24L71.9403 38.3738L32.0043 61.4138L32.504 62.28ZM72.44 39.24L72.947 40.1019C75.6405 38.5175 77.8556 38.4148 79.7624 39.4741L80.248 38.6L80.7336 37.7258C78.0324 36.2252 75.0422 36.5491 71.933 38.3781L72.44 39.24ZM80.248 38.6L79.7454 39.4645L90.7534 45.8645L91.256 45L91.7586 44.1355L80.7506 37.7355L80.248 38.6ZM43.64 68.68H42.64V163.4H43.64H44.64V68.68H43.64ZM43.64 163.4L44.1383 162.533L33.0023 156.133L32.504 157L32.0057 157.867L43.1417 164.267L43.64 163.4ZM32.504 157H33.504V62.28H32.504H31.504V157H32.504ZM32.504 62.28L32.0057 63.147L43.1417 69.547L43.64 68.68L44.1383 67.813L33.0023 61.413L32.504 62.28ZM136.858 75.08H137.858V73.3486L136.358 74.2138L136.858 75.08ZM116.89 86.6H115.89V88.3314L117.39 87.4662L116.89 86.6ZM116.89 73.8L116.39 72.9342L115.89 73.2229V73.8H116.89ZM167.834 44.36H168.834V42.6271L167.334 43.4942L167.834 44.36ZM167.834 57.16L168.334 58.0262L168.834 57.7376V57.16H167.834ZM147.866 68.68L147.366 67.8138L146.866 68.1024V68.68H147.866ZM147.866 157L148.369 157.865L148.866 157.575V157H147.866ZM136.858 163.4H135.858V165.138L137.361 164.265L136.858 163.4ZM136.858 75.08H137.858V74.5013L137.356 74.213L136.858 75.08ZM136.858 163.4L136.36 164.267L137.858 165.128V163.4H136.858ZM125.722 157H124.722V157.579L125.224 157.867L125.722 157ZM125.722 68.68L126.22 67.813L124.722 66.9519V68.68H125.722ZM167.834 44.36L168.334 45.2258L169.828 44.3626L168.337 43.4955L167.834 44.36ZM116.89 73.8L116.392 74.667L116.891 74.9542L117.39 74.6658L116.89 73.8ZM105.754 67.4L105.255 66.5336L103.749 67.4013L105.256 68.267L105.754 67.4ZM156.826 37.96L157.329 37.0955L156.828 36.8045L156.327 37.0936L156.826 37.96ZM116.89 73.8H117.89V73.2213L117.388 72.933L116.89 73.8ZM116.89 86.6L116.392 87.467L117.89 88.3281V86.6H116.89ZM105.754 80.2H104.754V80.7787L105.256 81.067L105.754 80.2ZM105.754 67.4L106.252 66.533L104.754 65.6719V67.4H105.754ZM136.858 75.08L136.358 74.2138L116.39 85.7338L116.89 86.6L117.39 87.4662L137.358 75.9462L136.858 75.08ZM116.89 86.6H117.89V73.8H116.89H115.89V86.6H116.89ZM116.89 73.8L117.39 74.6658L168.334 45.2258L167.834 44.36L167.334 43.4942L116.39 72.9342L116.89 73.8ZM167.834 44.36H166.834V57.16H167.834H168.834V44.36H167.834ZM167.834 57.16L167.334 56.2938L147.366 67.8138L147.866 68.68L148.366 69.5462L168.334 58.0262L167.834 57.16ZM147.866 68.68H146.866V157H147.866H148.866V68.68H147.866ZM147.866 157L147.363 156.135L136.355 162.535L136.858 163.4L137.361 164.265L148.369 157.865L147.866 157ZM136.858 163.4H137.858V75.08H136.858H135.858V163.4H136.858ZM136.858 75.08H135.858V163.4H136.858H137.858V75.08H136.858ZM136.858 163.4L137.356 162.533L126.22 156.133L125.722 157L125.224 157.867L136.36 164.267L136.858 163.4ZM125.722 157H126.722V68.68H125.722H124.722V157H125.722ZM125.722 68.68L125.224 69.547L136.36 75.947L136.858 75.08L137.356 74.213L126.22 67.813L125.722 68.68ZM167.834 44.36L167.334 43.4942L116.39 72.9342L116.89 73.8L117.39 74.6658L168.334 45.2258L167.834 44.36ZM116.89 73.8L117.388 72.933L106.252 66.533L105.754 67.4L105.256 68.267L116.392 74.667L116.89 73.8ZM105.754 67.4L106.253 68.2664L157.325 38.8264L156.826 37.96L156.327 37.0936L105.255 66.5336L105.754 67.4ZM156.826 37.96L156.323 38.8245L167.331 45.2245L167.834 44.36L168.337 43.4955L157.329 37.0955L156.826 37.96ZM116.89 73.8H115.89V86.6H116.89H117.89V73.8H116.89ZM116.89 86.6L117.388 85.733L106.252 79.333L105.754 80.2L105.256 81.067L116.392 87.467L116.89 86.6ZM105.754 80.2H106.754V67.4H105.754H104.754V80.2H105.754ZM105.754 67.4L105.256 68.267L116.392 74.667L116.89 73.8L117.388 72.933L106.252 66.533L105.754 67.4Z" fill="black" mask="url(#path-2-outside-1_2022_63)"></path>
</g>
<defs>
<clipPath id="SvgjsClipPath1002">
<rect width="200" height="200" rx="31" fill="white"></rect>
</clipPath>
</defs>
</svg><style>@media (prefers-color-scheme: light) { :root { filter: none; } }
@media (prefers-color-scheme: dark) { :root { filter: none; } }
</style></svg>